<?xml version="1.0" encoding="utf-8"?>
<!-- Generator: Adobe Illustrator 28.2.0, SVG Export Plug-In . SVG Version: 6.00 Build 0)  -->
<svg version="1.1" id="Layer_1" xmlns="http://www.w3.org/2000/svg" xmlns:xlink="http://www.w3.org/1999/xlink" x="0px" y="0px"
	 viewBox="0 0 240.2 204.2" style="enable-background:new 0 0 240.2 204.2;" xml:space="preserve">
<style type="text/css">
	.st0{fill:#FFFFFF;}
</style>
<g>
	<path class="st0" d="M216.3,145.8c-2.3,0-4.6-0.9-6.4-2.6L187.8,121h-76.3c-11.6,0-21-9.4-21-21V30.3c0-11.6,9.4-21,21-21h92.8
		c11.6,0,21,9.4,21,21v106.5c0,3.6-2.2,6.9-5.6,8.3C218.7,145.5,217.5,145.8,216.3,145.8z M111.5,27.3c-1.7,0-3,1.4-3,3v69.7
		c0,1.7,1.4,3,3,3h80c2.4,0,4.7,0.9,6.4,2.6l9.4,9.4V30.3c0-1.7-1.4-3-3-3H111.5z"/>
</g>
<path class="st0" d="M131.7,139.3v9.9c0,1.7-1.4,3-3,3h-80c-2.4,0-4.7,0.9-6.4,2.6l-9.4,9.4V79.5c0-1.7,1.4-3,3-3h36.5v-18H35.8
	c-11.6,0-21,9.4-21,21v106.5c0,3.6,2.2,6.9,5.6,8.3c1.1,0.5,2.3,0.7,3.4,0.7c2.3,0,4.6-0.9,6.4-2.6l22.2-22.2h76.3
	c11.6,0,21-9.4,21-21v-9.9H131.7z"/>
</svg>
