<?xml version="1.0" encoding="utf-8"?>
<!-- Generator: Adobe Illustrator 28.2.0, SVG Export Plug-In . SVG Version: 6.00 Build 0)  -->
<svg version="1.1" id="Layer_1" xmlns="http://www.w3.org/2000/svg" xmlns:xlink="http://www.w3.org/1999/xlink" x="0px" y="0px"
	 viewBox="0 0 894.3 625.8" style="enable-background:new 0 0 894.3 625.8;" xml:space="preserve">
<style type="text/css">
	.st0{fill:#FFFFFF;}
</style>
<path class="st0" d="M73.4,470.7c1.9-14.2,3.7-28.4,5.9-42.5c2.4-15.6,2.5-15.6,17.7-11.6c3.8,1,7.5,2.2,11.3,3
	c6.2,1.2,7.5,4.3,5.9,10.5c-4.7,18.1-10.3,36.2-12.6,54.7c-2.9,23.1-2.9,46.6-4.1,69.9c-0.2,3.7,1.4,8-4.6,8.9
	c-9.3,1.3-12.7-0.1-13.8-6.9c-1.6-10.3-2.8-20.8-4.1-31.1c-0.4-2.6-0.9-5.2-1.4-7.8C73.4,502,73.4,486.4,73.4,470.7z"/>
<path class="st0" d="M786.6,361.4c-2.3,1.5-4.5,3.5-7.2,4.6c-36.6,14.8-73.3,29.4-109.9,44.4c-6.3,2.6-8.8,0.5-10.7-5.3
	c-9-28.4-22.5-54.6-40.3-78.4c-8.3-11.1-17.7-21.5-27.1-31.7c-3.8-4.2-3.8-7-0.3-11.2c21.1-25.3,42.1-50.7,63-76.2
	c3.9-4.7,7-4.6,11.6-1c51.5,40.3,90.8,90.3,118.7,149.4C785.1,357.3,785.5,358.6,786.6,361.4z"/>
<path class="st0" d="M665.7,563.1c2.2-15.2,4.7-30.1,6.3-45c2.6-23.7,1.3-47.3-2.6-70.7c-1.8-10.7-1.9-10.8,8.3-13.7
	c38.2-10.9,76.4-21.8,114.6-32.7c8.9-2.6,9.4-2.3,12.3,6.9c14.9,47.7,21.1,96.6,19.5,146.5c-0.2,5.4-0.7,9.4-7.9,9.3
	c-49.1-0.2-98.1-0.1-147.2-0.1C667.8,563.5,666.6,563.2,665.7,563.1z"/>
<path class="st0" d="M403.3,197.8c0.6,16.1,0.6,16-12.3,16.4c-45.7,1.2-88.7,12.8-128.7,35c-6.8,3.8-10.1,2.7-14.1-3.5
	c-8.2-13-16.9-25.7-25.8-38.2c-3.6-5.1-3.2-8.3,2-12c50.1-36.1,105.8-58,167.1-65.9c4.9-0.6,7.3,1,7.6,6.1
	C400.5,157.4,402,179.1,403.3,197.8z"/>
<path class="st0" d="M91.4,377.9c4.4-11.2,7.9-21.1,12.1-30.7c19.2-44.4,46-83.6,80.6-117.5c7-6.8,7.6-6.8,14.1,0.9
	c9,10.6,17.9,21.3,27.1,31.7c3.9,4.4,4.1,7.5-0.9,11.3c-40.5,30.6-71.3,69.1-93.6,114.5c-2.4,5-5.2,6.4-10.4,4.3
	c-7.9-3.3-16-6-23.8-9.4C94.6,382,93.1,379.6,91.4,377.9z"/>
<path class="st0" d="M569.3,150.6c18.4,9.3,35.8,18,53.1,26.8c4.6,2.3,4.7,5.5,2,9.6c-17.6,26.7-35.1,53.3-52.6,80.1
	c-2.9,4.4-5.6,5.1-10.1,2c-17.6-12.3-17.6-12.2-12.6-33.4c6.2-26.3,12.2-52.7,18.3-79C567.8,155.3,568.3,154,569.3,150.6z"/>
<path class="st0" d="M453.1,219.7c-4.7-0.8-8.7-1.6-12.8-2.3c-9.9-1.7-9.9-1.7-9.4-12c1.1-23.6,2-47.3,3.4-70.9
	c0.2-2.5,3.2-7.1,4.8-7c18.7,0.6,37.3,1.9,57.5,3.2C481.5,161.6,467.4,190.6,453.1,219.7z"/>
<path class="st0" d="M558.2,70.8c-6.2-2.4-10.5,0.6-15.5,10.7c-41.9,85.7-83.8,171.4-125.7,257.1c-21.3,43.6-42.5,87.3-64,130.9
	c-22.3,45.2,10.8,90.3,53.6,89.9c30-0.6,52.5-19.8,59.6-50.8c32.3-140,64.5-280.1,96.8-420.1C565.4,78,564,73,558.2,70.8z
	 M408.5,526.8c-16.6,0.1-30-13.3-29.8-29.7c0.2-16.1,13.4-29.3,29.5-29.3c16.4-0.1,30,13.5,29.8,29.8
	C437.8,513.7,424.6,526.7,408.5,526.8z"/>
</svg>
