<svg width="117" height="37" xmlns="http://www.w3.org/2000/svg" xmlns:xlink="http://www.w3.org/1999/xlink"><defs><path id="a" d="M0 0h31.23v31.23H0z"/><path id="c" d="M0 0h80.053v31.67H0z"/></defs><g fill="none" fill-rule="evenodd"><mask id="b" fill="#fff"><use xlink:href="#a"/></mask><path d="M28.095 0a3.128 3.128 0 100 6.257 3.13 3.13 0 003.134-3.125A3.133 3.133 0 0028.095 0M21.222 13.159l3.916-5.143a.794.794 0 00.041-.902L23.516 4.45a.798.798 0 00-.682-.374l-7.178.05-3.936-.003a.326.326 0 00-.205.58l1.103.886c.155.125.339.21.535.246l6.835 1.286-8.456 9.066-11.13 1.577a.48.48 0 00-.284.804l1.087 1.162c.216.23.518.359.833.354l10.744-.176a2.242 2.242 0 001.127-.326l2.575-1.564 5.433 4.303c.214.17.354.415.39.685l1.035 7.597a.724.724 0 00.717.625h.554a.724.724 0 00.724-.72l.032-8.43a2.011 2.011 0 00-.398-1.209l-4.74-6.375.991-1.336" fill="#f91351" mask="url(#b)"/><path d="M48.513 10.907c0-1.56-1.223-2.524-2.817-2.524h-4.268v5.104h4.268c1.594 0 2.817-.964 2.817-2.58zm-.398 12.845l-3.728-6.72h-2.959v6.72h-4.04V4.838h8.878c3.955 0 6.402 2.58 6.402 6.097 0 3.318-2.134 5.132-4.183 5.615l4.297 7.202h-4.667zM55.421 23.752V4.838h13.196v3.545H59.39v3.97h9.03v3.544h-9.03v4.31h9.226v3.545H55.42M83.045 10.935c0-1.588-1.2-2.552-2.762-2.552h-4.186v5.076h4.186c1.562 0 2.762-.965 2.762-2.524zm-10.91 12.817V4.838h8.705c4.046 0 6.25 2.78 6.25 6.097 0 3.29-2.232 6.068-6.25 6.068h-4.743v6.749h-3.962zM89.29 23.752V4.838h3.995v15.37h7.88v3.544H89.29" fill="#FFFFFE"/><g transform="translate(36.947 4.838)"><mask id="d" fill="#fff"><use xlink:href="#c"/></mask><path fill="#FFFFFE" mask="url(#d)" d="M68.84 18.935v-7.75L61.607 0h4.576l4.66 7.58L75.506 0h4.548L72.85 11.185v7.75h-4.01"/><path d="M0 27.6c0-2.436 1.8-4.08 4.119-4.08 1.577 0 2.565.816 3.141 1.762l-1.164.615a2.319 2.319 0 00-1.977-1.147c-1.554 0-2.707 1.183-2.707 2.85 0 1.644 1.153 2.85 2.707 2.85.835 0 1.6-.496 1.977-1.147l1.176.592c-.6.946-1.576 1.786-3.153 1.786C1.8 31.68 0 30.025 0 27.6M14.64 27.6c0-1.632-1.024-2.85-2.601-2.85-1.589 0-2.6 1.218-2.6 2.85 0 1.62 1.011 2.85 2.6 2.85 1.577 0 2.6-1.23 2.6-2.85zm-6.614 0c0-2.353 1.66-4.08 4.013-4.08 2.342 0 4.013 1.727 4.013 4.08 0 2.354-1.671 4.08-4.013 4.08-2.354 0-4.013-1.726-4.013-4.08z" fill="#f91351" mask="url(#d)"/></g><path fill="#f91351" d="M61.488 36.508v-6.114l-2.46 6.114h-.604l-2.472-6.114v6.114h-1.41V28.59h1.989l2.195 5.437 2.183-5.437h1.99v7.918h-1.411M70.303 36.508l-1.467-5.852-1.477 5.852h-1.421l-2.16-7.918h1.478l1.478 6.09 1.568-6.09h1.057l1.57 6.09 1.477-6.09h1.489l-2.171 7.918h-1.421M79.443 31.06c0-.76-.571-1.247-1.357-1.247h-1.918v2.516h1.918c.786 0 1.357-.498 1.357-1.27zm-.13 5.448l-1.751-2.956h-1.394v2.956h-1.394V28.59h3.49c1.573 0 2.609 1.01 2.609 2.481 0 1.4-.93 2.172-1.894 2.327l1.953 3.11h-1.62zM85.33 29.979l-1.417 3.775h2.836l-1.418-3.775zm2.388 6.529l-.58-1.532h-3.615l-.58 1.532h-1.57l3.095-7.918h1.726l3.095 7.918h-1.571zM94.881 31.071c0-.76-.566-1.258-1.362-1.258h-1.94v2.505h1.94c.796 0 1.362-.5 1.362-1.247zm-4.712 5.437V28.59h3.543c1.687 0 2.615 1.128 2.615 2.481 0 1.341-.94 2.47-2.615 2.47H91.58v2.967h-1.41z"/></g></svg>